<svg xmlns="http://www.w3.org/2000/svg" viewBox="0 0 444 443.11"><defs><style>.cls-1{fill:#fff;}</style></defs><title>dex-logo</title><g id="Layer_2" data-name="Layer 2"><g id="Layer_1-2" data-name="Layer 1"><polygon class="cls-1" points="52.94 358.17 17.08 202.77 34.15 197.65 63.19 279.62 184.43 84.94 198.09 93.48 52.94 358.17"/><circle class="cls-1" cx="232.39" cy="25.74" r="25.74"/><circle class="cls-1" cx="25.74" cy="417.38" r="25.74"/><circle class="cls-1" cx="418.26" cy="308.81" r="25.74"/><polygon class="cls-1" points="87.09 392.32 360.32 313.77 363.74 341.09 90.51 409.4 87.09 392.32"/><polygon class="cls-1" points="379.11 248.88 262.99 84.94 286.12 68.82 393.7 239.59 379.11 248.88"/><path class="cls-1" d="M228.3,211.25a26.56,26.56,0,0,1,27.87,12.8l43.57-8.17a69.92,69.92,0,0,0-136.35,25.56L207,233.28A26.56,26.56,0,0,1,228.3,211.25Z"/><circle class="cls-1" cx="233.45" cy="238.74" r="16.34"/><path class="cls-1" d="M238.42,265.24a26.54,26.54,0,0,1-27.87-12.8L167,260.61a69.92,69.92,0,0,0,136.35-25.56l-43.57,8.17A26.56,26.56,0,0,1,238.42,265.24Z"/></g></g></svg>